<mxfile host="app.diagrams.net" agent="Mozilla/5.0 (Windows NT 10.0; Win64; x64) AppleWebKit/537.36 (KHTML, like Gecko) Chrome/130.0.0.0 Safari/537.36" version="24.8.3">
  <diagram name="Page-1" id="szYvOP-jTvV_qFEhlbwu">
    <mxGraphModel dx="1195" dy="650" grid="1" gridSize="10" guides="1" tooltips="1" connect="1" arrows="1" fold="1" page="1" pageScale="1" pageWidth="827" pageHeight="1169" math="0" shadow="0">
      <root>
        <mxCell id="0" />
        <mxCell id="1" parent="0" />
        <mxCell id="vUXkE58GjYs9hxaKxyRb-23" style="edgeStyle=orthogonalEdgeStyle;shape=connector;curved=1;rounded=0;orthogonalLoop=1;jettySize=auto;html=1;strokeColor=default;align=center;verticalAlign=middle;fontFamily=Helvetica;fontSize=11;fontColor=default;labelBackgroundColor=default;elbow=vertical;endArrow=none;endFill=0;flowAnimation=1;" edge="1" parent="1" source="vUXkE58GjYs9hxaKxyRb-1" target="vUXkE58GjYs9hxaKxyRb-2">
          <mxGeometry relative="1" as="geometry" />
        </mxCell>
        <mxCell id="vUXkE58GjYs9hxaKxyRb-26" style="edgeStyle=orthogonalEdgeStyle;shape=connector;curved=1;rounded=0;orthogonalLoop=1;jettySize=auto;html=1;entryX=0;entryY=0.5;entryDx=0;entryDy=0;strokeColor=default;align=center;verticalAlign=middle;fontFamily=Helvetica;fontSize=11;fontColor=default;labelBackgroundColor=default;elbow=vertical;endArrow=none;endFill=0;flowAnimation=1;" edge="1" parent="1" source="vUXkE58GjYs9hxaKxyRb-1" target="vUXkE58GjYs9hxaKxyRb-25">
          <mxGeometry relative="1" as="geometry" />
        </mxCell>
        <mxCell id="vUXkE58GjYs9hxaKxyRb-1" value="" style="ellipse;whiteSpace=wrap;html=1;aspect=fixed;fillColor=#dae8fc;strokeColor=#6c8ebf;" vertex="1" parent="1">
          <mxGeometry x="80" y="100" width="40" height="40" as="geometry" />
        </mxCell>
        <mxCell id="vUXkE58GjYs9hxaKxyRb-19" style="edgeStyle=orthogonalEdgeStyle;shape=connector;curved=1;rounded=0;orthogonalLoop=1;jettySize=auto;html=1;entryX=0;entryY=0.5;entryDx=0;entryDy=0;strokeColor=default;align=center;verticalAlign=middle;fontFamily=Helvetica;fontSize=11;fontColor=default;labelBackgroundColor=default;elbow=vertical;endArrow=none;endFill=0;flowAnimation=1;" edge="1" parent="1" source="vUXkE58GjYs9hxaKxyRb-2" target="vUXkE58GjYs9hxaKxyRb-16">
          <mxGeometry relative="1" as="geometry" />
        </mxCell>
        <mxCell id="vUXkE58GjYs9hxaKxyRb-63" style="edgeStyle=orthogonalEdgeStyle;shape=connector;curved=1;rounded=0;orthogonalLoop=1;jettySize=auto;html=1;entryX=0.5;entryY=0;entryDx=0;entryDy=0;strokeColor=default;align=center;verticalAlign=middle;fontFamily=Helvetica;fontSize=11;fontColor=default;labelBackgroundColor=default;elbow=vertical;endArrow=none;endFill=0;flowAnimation=1;" edge="1" parent="1" source="vUXkE58GjYs9hxaKxyRb-2" target="vUXkE58GjYs9hxaKxyRb-4">
          <mxGeometry relative="1" as="geometry" />
        </mxCell>
        <mxCell id="vUXkE58GjYs9hxaKxyRb-2" value="" style="ellipse;whiteSpace=wrap;html=1;aspect=fixed;fillColor=#d5e8d4;strokeColor=#82b366;" vertex="1" parent="1">
          <mxGeometry x="80" y="210" width="40" height="40" as="geometry" />
        </mxCell>
        <mxCell id="vUXkE58GjYs9hxaKxyRb-10" style="edgeStyle=orthogonalEdgeStyle;shape=connector;curved=1;rounded=0;orthogonalLoop=1;jettySize=auto;html=1;entryX=0;entryY=0.5;entryDx=0;entryDy=0;strokeColor=default;align=center;verticalAlign=middle;fontFamily=Helvetica;fontSize=11;fontColor=default;labelBackgroundColor=default;elbow=vertical;endArrow=none;endFill=0;flowAnimation=1;" edge="1" parent="1" source="vUXkE58GjYs9hxaKxyRb-4" target="vUXkE58GjYs9hxaKxyRb-5">
          <mxGeometry relative="1" as="geometry" />
        </mxCell>
        <mxCell id="vUXkE58GjYs9hxaKxyRb-20" style="edgeStyle=orthogonalEdgeStyle;shape=connector;curved=1;rounded=0;orthogonalLoop=1;jettySize=auto;html=1;entryX=0;entryY=0.5;entryDx=0;entryDy=0;strokeColor=default;align=center;verticalAlign=middle;fontFamily=Helvetica;fontSize=11;fontColor=default;labelBackgroundColor=default;elbow=vertical;endArrow=none;endFill=0;flowAnimation=1;" edge="1" parent="1" source="vUXkE58GjYs9hxaKxyRb-4" target="vUXkE58GjYs9hxaKxyRb-11">
          <mxGeometry relative="1" as="geometry" />
        </mxCell>
        <mxCell id="vUXkE58GjYs9hxaKxyRb-4" value="" style="ellipse;whiteSpace=wrap;html=1;aspect=fixed;fillColor=#f5f5f5;strokeColor=#666666;fontColor=#333333;" vertex="1" parent="1">
          <mxGeometry x="80" y="300" width="40" height="40" as="geometry" />
        </mxCell>
        <mxCell id="vUXkE58GjYs9hxaKxyRb-14" style="edgeStyle=orthogonalEdgeStyle;shape=connector;curved=1;rounded=0;orthogonalLoop=1;jettySize=auto;html=1;entryX=0;entryY=0.5;entryDx=0;entryDy=0;strokeColor=default;align=center;verticalAlign=middle;fontFamily=Helvetica;fontSize=11;fontColor=default;labelBackgroundColor=default;elbow=vertical;endArrow=none;endFill=0;flowAnimation=1;" edge="1" parent="1" source="vUXkE58GjYs9hxaKxyRb-5" target="vUXkE58GjYs9hxaKxyRb-11">
          <mxGeometry relative="1" as="geometry" />
        </mxCell>
        <mxCell id="vUXkE58GjYs9hxaKxyRb-5" value="" style="ellipse;whiteSpace=wrap;html=1;aspect=fixed;fillColor=#e1d5e7;strokeColor=#9673a6;" vertex="1" parent="1">
          <mxGeometry x="160" y="360" width="40" height="40" as="geometry" />
        </mxCell>
        <mxCell id="vUXkE58GjYs9hxaKxyRb-21" style="edgeStyle=orthogonalEdgeStyle;shape=connector;curved=1;rounded=0;orthogonalLoop=1;jettySize=auto;html=1;entryX=0.5;entryY=1;entryDx=0;entryDy=0;strokeColor=default;align=center;verticalAlign=middle;fontFamily=Helvetica;fontSize=11;fontColor=default;labelBackgroundColor=default;elbow=vertical;endArrow=none;endFill=0;flowAnimation=1;" edge="1" parent="1" source="vUXkE58GjYs9hxaKxyRb-11" target="vUXkE58GjYs9hxaKxyRb-16">
          <mxGeometry relative="1" as="geometry" />
        </mxCell>
        <mxCell id="vUXkE58GjYs9hxaKxyRb-30" style="edgeStyle=orthogonalEdgeStyle;shape=connector;curved=1;rounded=0;orthogonalLoop=1;jettySize=auto;html=1;strokeColor=default;align=center;verticalAlign=middle;fontFamily=Helvetica;fontSize=11;fontColor=default;labelBackgroundColor=default;elbow=vertical;endArrow=none;endFill=0;entryX=0;entryY=0.5;entryDx=0;entryDy=0;flowAnimation=1;" edge="1" parent="1" source="vUXkE58GjYs9hxaKxyRb-55" target="vUXkE58GjYs9hxaKxyRb-32">
          <mxGeometry relative="1" as="geometry">
            <mxPoint x="519.9999999999998" y="320" as="targetPoint" />
          </mxGeometry>
        </mxCell>
        <mxCell id="vUXkE58GjYs9hxaKxyRb-11" value="" style="ellipse;whiteSpace=wrap;html=1;aspect=fixed;fillColor=#f5f5f5;strokeColor=#666666;fontColor=#333333;" vertex="1" parent="1">
          <mxGeometry x="240" y="300" width="40" height="40" as="geometry" />
        </mxCell>
        <mxCell id="vUXkE58GjYs9hxaKxyRb-29" style="edgeStyle=orthogonalEdgeStyle;shape=connector;curved=1;rounded=0;orthogonalLoop=1;jettySize=auto;html=1;strokeColor=default;align=center;verticalAlign=middle;fontFamily=Helvetica;fontSize=11;fontColor=default;labelBackgroundColor=default;elbow=vertical;endArrow=none;endFill=0;entryX=0;entryY=0.5;entryDx=0;entryDy=0;flowAnimation=1;" edge="1" parent="1" source="vUXkE58GjYs9hxaKxyRb-58" target="vUXkE58GjYs9hxaKxyRb-31">
          <mxGeometry relative="1" as="geometry">
            <mxPoint x="499.9999999999998" y="220" as="targetPoint" />
          </mxGeometry>
        </mxCell>
        <mxCell id="vUXkE58GjYs9hxaKxyRb-57" style="edgeStyle=orthogonalEdgeStyle;shape=connector;curved=1;rounded=0;orthogonalLoop=1;jettySize=auto;html=1;entryX=0;entryY=0.5;entryDx=0;entryDy=0;strokeColor=default;align=center;verticalAlign=middle;fontFamily=Helvetica;fontSize=11;fontColor=default;labelBackgroundColor=default;elbow=vertical;endArrow=none;endFill=0;flowAnimation=1;" edge="1" parent="1" source="vUXkE58GjYs9hxaKxyRb-16" target="vUXkE58GjYs9hxaKxyRb-55">
          <mxGeometry relative="1" as="geometry" />
        </mxCell>
        <mxCell id="vUXkE58GjYs9hxaKxyRb-16" value="" style="ellipse;whiteSpace=wrap;html=1;aspect=fixed;fillColor=#d5e8d4;strokeColor=#82b366;" vertex="1" parent="1">
          <mxGeometry x="250" y="210" width="40" height="40" as="geometry" />
        </mxCell>
        <mxCell id="vUXkE58GjYs9hxaKxyRb-28" value="" style="edgeStyle=orthogonalEdgeStyle;shape=connector;curved=1;rounded=0;orthogonalLoop=1;jettySize=auto;html=1;strokeColor=default;align=center;verticalAlign=middle;fontFamily=Helvetica;fontSize=11;fontColor=default;labelBackgroundColor=default;elbow=vertical;endArrow=none;endFill=0;flowAnimation=1;" edge="1" parent="1" source="vUXkE58GjYs9hxaKxyRb-25" target="vUXkE58GjYs9hxaKxyRb-27">
          <mxGeometry relative="1" as="geometry" />
        </mxCell>
        <mxCell id="vUXkE58GjYs9hxaKxyRb-64" style="edgeStyle=orthogonalEdgeStyle;shape=connector;curved=1;rounded=0;orthogonalLoop=1;jettySize=auto;html=1;strokeColor=default;align=center;verticalAlign=middle;fontFamily=Helvetica;fontSize=11;fontColor=default;labelBackgroundColor=default;elbow=vertical;endArrow=none;endFill=0;flowAnimation=1;" edge="1" parent="1" source="vUXkE58GjYs9hxaKxyRb-25">
          <mxGeometry relative="1" as="geometry">
            <mxPoint x="530" y="120" as="targetPoint" />
          </mxGeometry>
        </mxCell>
        <mxCell id="vUXkE58GjYs9hxaKxyRb-25" value="" style="ellipse;whiteSpace=wrap;html=1;aspect=fixed;fillColor=#dae8fc;strokeColor=#6c8ebf;" vertex="1" parent="1">
          <mxGeometry x="394" y="100" width="40" height="40" as="geometry" />
        </mxCell>
        <mxCell id="vUXkE58GjYs9hxaKxyRb-34" style="edgeStyle=orthogonalEdgeStyle;shape=connector;curved=1;rounded=0;orthogonalLoop=1;jettySize=auto;html=1;entryX=0;entryY=0.5;entryDx=0;entryDy=0;strokeColor=default;align=center;verticalAlign=middle;fontFamily=Helvetica;fontSize=11;fontColor=default;labelBackgroundColor=default;elbow=vertical;endArrow=none;endFill=0;flowAnimation=1;" edge="1" parent="1" source="vUXkE58GjYs9hxaKxyRb-27" target="vUXkE58GjYs9hxaKxyRb-33">
          <mxGeometry relative="1" as="geometry" />
        </mxCell>
        <mxCell id="vUXkE58GjYs9hxaKxyRb-47" style="edgeStyle=orthogonalEdgeStyle;shape=connector;curved=1;rounded=0;orthogonalLoop=1;jettySize=auto;html=1;entryX=0;entryY=0.5;entryDx=0;entryDy=0;strokeColor=default;align=center;verticalAlign=middle;fontFamily=Helvetica;fontSize=11;fontColor=default;labelBackgroundColor=default;elbow=vertical;endArrow=none;endFill=0;flowAnimation=1;" edge="1" parent="1" source="vUXkE58GjYs9hxaKxyRb-27" target="vUXkE58GjYs9hxaKxyRb-31">
          <mxGeometry relative="1" as="geometry" />
        </mxCell>
        <mxCell id="vUXkE58GjYs9hxaKxyRb-48" style="edgeStyle=orthogonalEdgeStyle;shape=connector;curved=1;rounded=0;orthogonalLoop=1;jettySize=auto;html=1;entryX=0;entryY=0.5;entryDx=0;entryDy=0;strokeColor=default;align=center;verticalAlign=middle;fontFamily=Helvetica;fontSize=11;fontColor=default;labelBackgroundColor=default;elbow=vertical;endArrow=none;endFill=0;flowAnimation=1;" edge="1" parent="1" source="vUXkE58GjYs9hxaKxyRb-27" target="vUXkE58GjYs9hxaKxyRb-32">
          <mxGeometry relative="1" as="geometry">
            <Array as="points">
              <mxPoint x="490" y="180" />
              <mxPoint x="490" y="320" />
            </Array>
          </mxGeometry>
        </mxCell>
        <mxCell id="vUXkE58GjYs9hxaKxyRb-27" value="" style="ellipse;whiteSpace=wrap;html=1;aspect=fixed;fontFamily=Helvetica;fontSize=11;labelBackgroundColor=default;fillColor=#ffe6cc;strokeColor=#d79b00;" vertex="1" parent="1">
          <mxGeometry x="440" y="160" width="40" height="40" as="geometry" />
        </mxCell>
        <mxCell id="vUXkE58GjYs9hxaKxyRb-36" style="edgeStyle=orthogonalEdgeStyle;shape=connector;curved=1;rounded=0;orthogonalLoop=1;jettySize=auto;html=1;entryX=0.5;entryY=0;entryDx=0;entryDy=0;strokeColor=default;align=center;verticalAlign=middle;fontFamily=Helvetica;fontSize=11;fontColor=default;labelBackgroundColor=default;elbow=vertical;endArrow=none;endFill=0;flowAnimation=1;" edge="1" parent="1" source="vUXkE58GjYs9hxaKxyRb-31" target="vUXkE58GjYs9hxaKxyRb-32">
          <mxGeometry relative="1" as="geometry" />
        </mxCell>
        <mxCell id="vUXkE58GjYs9hxaKxyRb-31" value="" style="ellipse;whiteSpace=wrap;html=1;aspect=fixed;fillColor=#d5e8d4;strokeColor=#82b366;" vertex="1" parent="1">
          <mxGeometry x="530" y="210" width="40" height="40" as="geometry" />
        </mxCell>
        <mxCell id="vUXkE58GjYs9hxaKxyRb-32" value="" style="ellipse;whiteSpace=wrap;html=1;aspect=fixed;fillColor=#f5f5f5;strokeColor=#666666;fontColor=#333333;" vertex="1" parent="1">
          <mxGeometry x="530" y="300" width="40" height="40" as="geometry" />
        </mxCell>
        <mxCell id="vUXkE58GjYs9hxaKxyRb-35" style="edgeStyle=orthogonalEdgeStyle;shape=connector;curved=1;rounded=0;orthogonalLoop=1;jettySize=auto;html=1;entryX=0.5;entryY=0;entryDx=0;entryDy=0;strokeColor=default;align=center;verticalAlign=middle;fontFamily=Helvetica;fontSize=11;fontColor=default;labelBackgroundColor=default;elbow=vertical;endArrow=none;endFill=0;flowAnimation=1;" edge="1" parent="1" source="vUXkE58GjYs9hxaKxyRb-33" target="vUXkE58GjYs9hxaKxyRb-31">
          <mxGeometry relative="1" as="geometry" />
        </mxCell>
        <mxCell id="vUXkE58GjYs9hxaKxyRb-33" value="" style="ellipse;whiteSpace=wrap;html=1;aspect=fixed;fillColor=#dae8fc;strokeColor=#6c8ebf;" vertex="1" parent="1">
          <mxGeometry x="530" y="100" width="40" height="40" as="geometry" />
        </mxCell>
        <mxCell id="vUXkE58GjYs9hxaKxyRb-37" value="develop" style="text;html=1;align=center;verticalAlign=middle;whiteSpace=wrap;rounded=0;fontFamily=Helvetica;fontSize=11;labelBackgroundColor=default;fillColor=#f5f5f5;strokeColor=#666666;fontColor=#333333;" vertex="1" parent="1">
          <mxGeometry x="580" y="305" width="60" height="30" as="geometry" />
        </mxCell>
        <mxCell id="vUXkE58GjYs9hxaKxyRb-38" value="&lt;span style=&quot;background-color: rgb(225, 213, 231);&quot;&gt;features&lt;/span&gt;" style="text;html=1;align=center;verticalAlign=middle;whiteSpace=wrap;rounded=0;fontFamily=Helvetica;fontSize=11;labelBackgroundColor=default;fillColor=#E1D5E7;strokeColor=#9673a6;" vertex="1" parent="1">
          <mxGeometry x="580" y="365" width="60" height="30" as="geometry" />
        </mxCell>
        <mxCell id="vUXkE58GjYs9hxaKxyRb-39" value="&lt;span style=&quot;background-color: rgb(213, 232, 212);&quot;&gt;stage&lt;/span&gt;" style="text;html=1;align=center;verticalAlign=middle;whiteSpace=wrap;rounded=0;fontFamily=Helvetica;fontSize=11;labelBackgroundColor=default;fillColor=#D5E8D4;strokeColor=#82b366;" vertex="1" parent="1">
          <mxGeometry x="580" y="216.88" width="60" height="26.25" as="geometry" />
        </mxCell>
        <mxCell id="vUXkE58GjYs9hxaKxyRb-41" value="&lt;span style=&quot;background-color: rgb(255, 230, 204);&quot;&gt;hotfix&lt;/span&gt;" style="text;html=1;align=center;verticalAlign=middle;whiteSpace=wrap;rounded=0;fontFamily=Helvetica;fontSize=11;labelBackgroundColor=default;fillColor=#FFE6CC;strokeColor=#d79b00;" vertex="1" parent="1">
          <mxGeometry x="580" y="165" width="60" height="30" as="geometry" />
        </mxCell>
        <mxCell id="vUXkE58GjYs9hxaKxyRb-42" value="&lt;span style=&quot;background-color: rgb(218, 232, 252);&quot;&gt;main&lt;/span&gt;" style="text;html=1;align=center;verticalAlign=middle;whiteSpace=wrap;rounded=0;fontFamily=Helvetica;fontSize=11;labelBackgroundColor=default;fillColor=#DAE8FC;strokeColor=#6c8ebf;" vertex="1" parent="1">
          <mxGeometry x="580" y="105" width="60" height="30" as="geometry" />
        </mxCell>
        <mxCell id="vUXkE58GjYs9hxaKxyRb-44" value="v.0.1.0" style="text;html=1;align=center;verticalAlign=middle;whiteSpace=wrap;rounded=0;fontFamily=Helvetica;fontSize=11;fontColor=default;labelBackgroundColor=default;" vertex="1" parent="1">
          <mxGeometry x="70" y="60" width="60" height="30" as="geometry" />
        </mxCell>
        <mxCell id="vUXkE58GjYs9hxaKxyRb-45" value="v.0.2.0" style="text;html=1;align=center;verticalAlign=middle;whiteSpace=wrap;rounded=0;fontFamily=Helvetica;fontSize=11;fontColor=default;labelBackgroundColor=default;" vertex="1" parent="1">
          <mxGeometry x="384" y="60" width="60" height="30" as="geometry" />
        </mxCell>
        <mxCell id="vUXkE58GjYs9hxaKxyRb-46" value="v.0.2.1" style="text;html=1;align=center;verticalAlign=middle;whiteSpace=wrap;rounded=0;fontFamily=Helvetica;fontSize=11;fontColor=default;labelBackgroundColor=default;" vertex="1" parent="1">
          <mxGeometry x="520" y="60" width="60" height="30" as="geometry" />
        </mxCell>
        <mxCell id="vUXkE58GjYs9hxaKxyRb-56" value="" style="edgeStyle=orthogonalEdgeStyle;shape=connector;curved=1;rounded=0;orthogonalLoop=1;jettySize=auto;html=1;strokeColor=default;align=center;verticalAlign=middle;fontFamily=Helvetica;fontSize=11;fontColor=default;labelBackgroundColor=default;elbow=vertical;endArrow=none;endFill=0;entryX=0;entryY=0.5;entryDx=0;entryDy=0;flowAnimation=1;" edge="1" parent="1" source="vUXkE58GjYs9hxaKxyRb-11" target="vUXkE58GjYs9hxaKxyRb-55">
          <mxGeometry relative="1" as="geometry">
            <mxPoint x="530" y="320" as="targetPoint" />
            <mxPoint x="280" y="320" as="sourcePoint" />
          </mxGeometry>
        </mxCell>
        <mxCell id="vUXkE58GjYs9hxaKxyRb-60" style="edgeStyle=orthogonalEdgeStyle;shape=connector;curved=1;rounded=0;orthogonalLoop=1;jettySize=auto;html=1;entryX=0.5;entryY=1;entryDx=0;entryDy=0;strokeColor=default;align=center;verticalAlign=middle;fontFamily=Helvetica;fontSize=11;fontColor=default;labelBackgroundColor=default;elbow=vertical;endArrow=none;endFill=0;flowAnimation=1;" edge="1" parent="1" source="vUXkE58GjYs9hxaKxyRb-55" target="vUXkE58GjYs9hxaKxyRb-58">
          <mxGeometry relative="1" as="geometry" />
        </mxCell>
        <mxCell id="vUXkE58GjYs9hxaKxyRb-55" value="" style="ellipse;whiteSpace=wrap;html=1;aspect=fixed;fillColor=#f5f5f5;strokeColor=#666666;fontColor=#333333;" vertex="1" parent="1">
          <mxGeometry x="334" y="300" width="40" height="40" as="geometry" />
        </mxCell>
        <mxCell id="vUXkE58GjYs9hxaKxyRb-59" value="" style="edgeStyle=orthogonalEdgeStyle;shape=connector;curved=1;rounded=0;orthogonalLoop=1;jettySize=auto;html=1;strokeColor=default;align=center;verticalAlign=middle;fontFamily=Helvetica;fontSize=11;fontColor=default;labelBackgroundColor=default;elbow=vertical;endArrow=none;endFill=0;entryX=0;entryY=0.5;entryDx=0;entryDy=0;flowAnimation=1;" edge="1" parent="1" source="vUXkE58GjYs9hxaKxyRb-16" target="vUXkE58GjYs9hxaKxyRb-58">
          <mxGeometry relative="1" as="geometry">
            <mxPoint x="530" y="220" as="targetPoint" />
            <mxPoint x="290" y="220" as="sourcePoint" />
          </mxGeometry>
        </mxCell>
        <mxCell id="vUXkE58GjYs9hxaKxyRb-61" style="edgeStyle=orthogonalEdgeStyle;shape=connector;curved=1;rounded=0;orthogonalLoop=1;jettySize=auto;html=1;entryX=0.5;entryY=1;entryDx=0;entryDy=0;strokeColor=default;align=center;verticalAlign=middle;fontFamily=Helvetica;fontSize=11;fontColor=default;labelBackgroundColor=default;elbow=vertical;endArrow=none;endFill=0;flowAnimation=1;" edge="1" parent="1" source="vUXkE58GjYs9hxaKxyRb-58" target="vUXkE58GjYs9hxaKxyRb-25">
          <mxGeometry relative="1" as="geometry" />
        </mxCell>
        <mxCell id="vUXkE58GjYs9hxaKxyRb-58" value="" style="ellipse;whiteSpace=wrap;html=1;aspect=fixed;fillColor=#d5e8d4;strokeColor=#82b366;" vertex="1" parent="1">
          <mxGeometry x="374" y="210" width="40" height="40" as="geometry" />
        </mxCell>
      </root>
    </mxGraphModel>
  </diagram>
</mxfile>
